<mxfile host="app.diagrams.net" modified="2024-06-05T03:17:25.294Z" agent="Mozilla/5.0 (Macintosh; Intel Mac OS X 10_15_7) AppleWebKit/537.36 (KHTML, like Gecko) Chrome/125.0.0.0 Safari/537.36" etag="VEu8zjD0ABLMoOw7fqkm" version="24.4.4" type="github">
  <diagram name="第 1 页" id="yOLfAzwmhgXwYhg6j3OL">
    <mxGraphModel dx="2120" dy="2460" grid="1" gridSize="10" guides="1" tooltips="1" connect="1" arrows="1" fold="1" page="1" pageScale="1" pageWidth="827" pageHeight="1169" math="0" shadow="0">
      <root>
        <mxCell id="0" />
        <mxCell id="1" parent="0" />
        <mxCell id="po-5mSjwB8ZdOzb9rtBK-37" value="" style="rounded=0;whiteSpace=wrap;html=1;fillColor=#f5f5f5;fontColor=#333333;strokeColor=#666666;" vertex="1" parent="1">
          <mxGeometry x="370" y="-90" width="990" height="600" as="geometry" />
        </mxCell>
        <mxCell id="po-5mSjwB8ZdOzb9rtBK-38" value="" style="rounded=0;whiteSpace=wrap;html=1;fillColor=#e1d5e7;strokeColor=#9673a6;" vertex="1" parent="1">
          <mxGeometry x="720" y="20" width="630" height="440" as="geometry" />
        </mxCell>
        <mxCell id="po-5mSjwB8ZdOzb9rtBK-5" style="rounded=0;orthogonalLoop=1;jettySize=auto;html=1;" edge="1" parent="1" source="po-5mSjwB8ZdOzb9rtBK-1" target="po-5mSjwB8ZdOzb9rtBK-4">
          <mxGeometry relative="1" as="geometry" />
        </mxCell>
        <mxCell id="po-5mSjwB8ZdOzb9rtBK-8" value="上传图片或者视频" style="edgeLabel;html=1;align=center;verticalAlign=middle;resizable=0;points=[];" vertex="1" connectable="0" parent="po-5mSjwB8ZdOzb9rtBK-5">
          <mxGeometry x="-0.0154" y="1" relative="1" as="geometry">
            <mxPoint as="offset" />
          </mxGeometry>
        </mxCell>
        <mxCell id="po-5mSjwB8ZdOzb9rtBK-36" style="rounded=0;orthogonalLoop=1;jettySize=auto;html=1;entryX=0;entryY=0.25;entryDx=0;entryDy=0;" edge="1" parent="1" source="po-5mSjwB8ZdOzb9rtBK-1" target="po-5mSjwB8ZdOzb9rtBK-23">
          <mxGeometry relative="1" as="geometry" />
        </mxCell>
        <mxCell id="po-5mSjwB8ZdOzb9rtBK-1" value="SDK摄像头" style="rounded=1;whiteSpace=wrap;html=1;fillColor=#1ba1e2;fontColor=#ffffff;strokeColor=#006EAF;" vertex="1" parent="1">
          <mxGeometry x="100" y="100" width="120" height="60" as="geometry" />
        </mxCell>
        <mxCell id="po-5mSjwB8ZdOzb9rtBK-6" style="rounded=0;orthogonalLoop=1;jettySize=auto;html=1;" edge="1" parent="1" source="po-5mSjwB8ZdOzb9rtBK-2" target="po-5mSjwB8ZdOzb9rtBK-4">
          <mxGeometry relative="1" as="geometry">
            <mxPoint x="440" y="120" as="targetPoint" />
          </mxGeometry>
        </mxCell>
        <mxCell id="po-5mSjwB8ZdOzb9rtBK-7" value="上传视频" style="edgeLabel;html=1;align=center;verticalAlign=middle;resizable=0;points=[];" vertex="1" connectable="0" parent="po-5mSjwB8ZdOzb9rtBK-6">
          <mxGeometry x="-0.0147" y="1" relative="1" as="geometry">
            <mxPoint as="offset" />
          </mxGeometry>
        </mxCell>
        <mxCell id="po-5mSjwB8ZdOzb9rtBK-2" value="ONVIF普通摄像头" style="rounded=1;whiteSpace=wrap;html=1;fillColor=#1ba1e2;fontColor=#ffffff;strokeColor=#006EAF;" vertex="1" parent="1">
          <mxGeometry x="100" y="190" width="120" height="60" as="geometry" />
        </mxCell>
        <mxCell id="po-5mSjwB8ZdOzb9rtBK-28" style="rounded=0;orthogonalLoop=1;jettySize=auto;html=1;entryX=0;entryY=0.75;entryDx=0;entryDy=0;startArrow=classic;startFill=1;exitX=1;exitY=0.5;exitDx=0;exitDy=0;exitPerimeter=0;" edge="1" parent="1" source="po-5mSjwB8ZdOzb9rtBK-3" target="po-5mSjwB8ZdOzb9rtBK-9">
          <mxGeometry relative="1" as="geometry" />
        </mxCell>
        <mxCell id="po-5mSjwB8ZdOzb9rtBK-3" value="mqtt协议传感器设备" style="rounded=1;whiteSpace=wrap;html=1;fillColor=#1ba1e2;fontColor=#ffffff;strokeColor=#006EAF;" vertex="1" parent="1">
          <mxGeometry x="100" y="290" width="120" height="60" as="geometry" />
        </mxCell>
        <mxCell id="po-5mSjwB8ZdOzb9rtBK-4" value="流媒体服务器（nginx)" style="rounded=1;whiteSpace=wrap;html=1;fillColor=#d5e8d4;strokeColor=#82b366;" vertex="1" parent="1">
          <mxGeometry x="450" y="30" width="120" height="60" as="geometry" />
        </mxCell>
        <mxCell id="po-5mSjwB8ZdOzb9rtBK-27" style="rounded=0;orthogonalLoop=1;jettySize=auto;html=1;startArrow=classic;startFill=1;" edge="1" parent="1" source="po-5mSjwB8ZdOzb9rtBK-9" target="po-5mSjwB8ZdOzb9rtBK-26">
          <mxGeometry relative="1" as="geometry" />
        </mxCell>
        <mxCell id="po-5mSjwB8ZdOzb9rtBK-30" style="rounded=0;orthogonalLoop=1;jettySize=auto;html=1;entryX=0;entryY=0.5;entryDx=0;entryDy=0;startArrow=classic;startFill=1;" edge="1" parent="1" source="po-5mSjwB8ZdOzb9rtBK-9" target="po-5mSjwB8ZdOzb9rtBK-10">
          <mxGeometry relative="1" as="geometry" />
        </mxCell>
        <mxCell id="po-5mSjwB8ZdOzb9rtBK-9" value="mqtt消息队列" style="rounded=1;whiteSpace=wrap;html=1;fillColor=#ffe6cc;strokeColor=#d79b00;" vertex="1" parent="1">
          <mxGeometry x="520" y="190" width="120" height="60" as="geometry" />
        </mxCell>
        <mxCell id="po-5mSjwB8ZdOzb9rtBK-24" style="edgeStyle=orthogonalEdgeStyle;rounded=0;orthogonalLoop=1;jettySize=auto;html=1;entryX=0;entryY=0.5;entryDx=0;entryDy=0;" edge="1" parent="1" source="po-5mSjwB8ZdOzb9rtBK-10" target="po-5mSjwB8ZdOzb9rtBK-11">
          <mxGeometry relative="1" as="geometry" />
        </mxCell>
        <mxCell id="po-5mSjwB8ZdOzb9rtBK-10" value="mqtt驱动" style="rounded=1;whiteSpace=wrap;html=1;fillColor=#fff2cc;strokeColor=#d6b656;" vertex="1" parent="1">
          <mxGeometry x="770" y="280" width="120" height="60" as="geometry" />
        </mxCell>
        <mxCell id="po-5mSjwB8ZdOzb9rtBK-32" style="edgeStyle=orthogonalEdgeStyle;rounded=0;orthogonalLoop=1;jettySize=auto;html=1;" edge="1" parent="1" source="po-5mSjwB8ZdOzb9rtBK-11" target="po-5mSjwB8ZdOzb9rtBK-13">
          <mxGeometry relative="1" as="geometry" />
        </mxCell>
        <mxCell id="po-5mSjwB8ZdOzb9rtBK-11" value="物联网平台" style="rounded=1;whiteSpace=wrap;html=1;fillColor=#fff2cc;strokeColor=#d6b656;" vertex="1" parent="1">
          <mxGeometry x="1060" y="280" width="120" height="60" as="geometry" />
        </mxCell>
        <mxCell id="po-5mSjwB8ZdOzb9rtBK-12" value="中心服务" style="rounded=1;whiteSpace=wrap;html=1;fillColor=#e3c800;fontColor=#000000;strokeColor=#B09500;" vertex="1" parent="1">
          <mxGeometry x="1070" y="-230" width="120" height="60" as="geometry" />
        </mxCell>
        <mxCell id="po-5mSjwB8ZdOzb9rtBK-14" style="edgeStyle=orthogonalEdgeStyle;rounded=0;orthogonalLoop=1;jettySize=auto;html=1;entryX=1;entryY=0.5;entryDx=0;entryDy=0;" edge="1" parent="1" source="po-5mSjwB8ZdOzb9rtBK-13" target="po-5mSjwB8ZdOzb9rtBK-4">
          <mxGeometry relative="1" as="geometry" />
        </mxCell>
        <mxCell id="po-5mSjwB8ZdOzb9rtBK-19" style="rounded=0;orthogonalLoop=1;jettySize=auto;html=1;" edge="1" parent="1" source="po-5mSjwB8ZdOzb9rtBK-13" target="po-5mSjwB8ZdOzb9rtBK-12">
          <mxGeometry relative="1" as="geometry" />
        </mxCell>
        <mxCell id="po-5mSjwB8ZdOzb9rtBK-20" value="kafka、http推送" style="edgeLabel;html=1;align=center;verticalAlign=middle;resizable=0;points=[];" vertex="1" connectable="0" parent="po-5mSjwB8ZdOzb9rtBK-19">
          <mxGeometry x="0.0308" y="-1" relative="1" as="geometry">
            <mxPoint as="offset" />
          </mxGeometry>
        </mxCell>
        <mxCell id="po-5mSjwB8ZdOzb9rtBK-13" value="边缘服务" style="rounded=1;whiteSpace=wrap;html=1;fillColor=#d5e8d4;strokeColor=#82b366;" vertex="1" parent="1">
          <mxGeometry x="1060" y="30" width="120" height="60" as="geometry" />
        </mxCell>
        <mxCell id="po-5mSjwB8ZdOzb9rtBK-18" style="rounded=0;orthogonalLoop=1;jettySize=auto;html=1;entryX=0;entryY=0.25;entryDx=0;entryDy=0;" edge="1" parent="1" source="po-5mSjwB8ZdOzb9rtBK-17" target="po-5mSjwB8ZdOzb9rtBK-21">
          <mxGeometry relative="1" as="geometry">
            <mxPoint x="680" y="-100" as="targetPoint" />
          </mxGeometry>
        </mxCell>
        <mxCell id="po-5mSjwB8ZdOzb9rtBK-17" value="Actor" style="shape=umlActor;verticalLabelPosition=bottom;verticalAlign=top;html=1;outlineConnect=0;fillColor=#fa6800;fontColor=#000000;strokeColor=#C73500;" vertex="1" parent="1">
          <mxGeometry x="570" y="-200" width="30" height="60" as="geometry" />
        </mxCell>
        <mxCell id="po-5mSjwB8ZdOzb9rtBK-22" style="rounded=0;orthogonalLoop=1;jettySize=auto;html=1;" edge="1" parent="1" source="po-5mSjwB8ZdOzb9rtBK-21" target="po-5mSjwB8ZdOzb9rtBK-13">
          <mxGeometry relative="1" as="geometry" />
        </mxCell>
        <mxCell id="po-5mSjwB8ZdOzb9rtBK-21" value="nginx" style="rounded=1;whiteSpace=wrap;html=1;fillColor=#d5e8d4;strokeColor=#82b366;" vertex="1" parent="1">
          <mxGeometry x="780" y="-50" width="120" height="60" as="geometry" />
        </mxCell>
        <mxCell id="po-5mSjwB8ZdOzb9rtBK-25" style="edgeStyle=orthogonalEdgeStyle;rounded=0;orthogonalLoop=1;jettySize=auto;html=1;" edge="1" parent="1" source="po-5mSjwB8ZdOzb9rtBK-23" target="po-5mSjwB8ZdOzb9rtBK-11">
          <mxGeometry relative="1" as="geometry" />
        </mxCell>
        <mxCell id="po-5mSjwB8ZdOzb9rtBK-23" value="http驱动" style="rounded=1;whiteSpace=wrap;html=1;fillColor=#fff2cc;strokeColor=#d6b656;" vertex="1" parent="1">
          <mxGeometry x="770" y="380" width="120" height="60" as="geometry" />
        </mxCell>
        <mxCell id="po-5mSjwB8ZdOzb9rtBK-29" style="rounded=0;orthogonalLoop=1;jettySize=auto;html=1;entryX=1;entryY=1;entryDx=0;entryDy=0;" edge="1" parent="1" source="po-5mSjwB8ZdOzb9rtBK-26" target="po-5mSjwB8ZdOzb9rtBK-4">
          <mxGeometry relative="1" as="geometry" />
        </mxCell>
        <mxCell id="po-5mSjwB8ZdOzb9rtBK-35" style="rounded=0;orthogonalLoop=1;jettySize=auto;html=1;entryX=0;entryY=0.25;entryDx=0;entryDy=0;" edge="1" parent="1" source="po-5mSjwB8ZdOzb9rtBK-26" target="po-5mSjwB8ZdOzb9rtBK-11">
          <mxGeometry relative="1" as="geometry" />
        </mxCell>
        <mxCell id="po-5mSjwB8ZdOzb9rtBK-26" value="算法驱动" style="rounded=1;whiteSpace=wrap;html=1;fillColor=#fff2cc;strokeColor=#d6b656;" vertex="1" parent="1">
          <mxGeometry x="770" y="160" width="120" height="60" as="geometry" />
        </mxCell>
        <mxCell id="po-5mSjwB8ZdOzb9rtBK-33" style="rounded=0;orthogonalLoop=1;jettySize=auto;html=1;" edge="1" parent="1" source="po-5mSjwB8ZdOzb9rtBK-31" target="po-5mSjwB8ZdOzb9rtBK-23">
          <mxGeometry relative="1" as="geometry" />
        </mxCell>
        <mxCell id="po-5mSjwB8ZdOzb9rtBK-31" value="http协议应用" style="rounded=1;whiteSpace=wrap;html=1;fillColor=#1ba1e2;fontColor=#ffffff;strokeColor=#006EAF;" vertex="1" parent="1">
          <mxGeometry x="100" y="400" width="120" height="60" as="geometry" />
        </mxCell>
        <mxCell id="po-5mSjwB8ZdOzb9rtBK-34" value="设备，属性，事件" style="text;html=1;align=center;verticalAlign=middle;whiteSpace=wrap;rounded=0;" vertex="1" parent="1">
          <mxGeometry x="1230" y="280" width="120" height="30" as="geometry" />
        </mxCell>
        <mxCell id="po-5mSjwB8ZdOzb9rtBK-39" value="db" style="shape=cylinder3;whiteSpace=wrap;html=1;boundedLbl=1;backgroundOutline=1;size=15;fillColor=#6d8764;fontColor=#ffffff;strokeColor=#3A5431;" vertex="1" parent="1">
          <mxGeometry x="1260" y="170" width="60" height="80" as="geometry" />
        </mxCell>
        <mxCell id="po-5mSjwB8ZdOzb9rtBK-40" style="rounded=0;orthogonalLoop=1;jettySize=auto;html=1;entryX=0;entryY=0;entryDx=0;entryDy=27.5;entryPerimeter=0;" edge="1" parent="1" source="po-5mSjwB8ZdOzb9rtBK-13" target="po-5mSjwB8ZdOzb9rtBK-39">
          <mxGeometry relative="1" as="geometry" />
        </mxCell>
      </root>
    </mxGraphModel>
  </diagram>
</mxfile>
